<svg xml:space="preserve" viewBox="0 0 512 512">
	<path d="M256.01 0C114.615 0 0 114.617 0 256c0 141.384 114.616 256 256.01 256C397.383 512 512 397.384 512 256 512 114.617 397.384 0 256.01 0zm-.02 457.029c-110.842 0-201.011-90.17-201.011-201.012S145.149 54.971 255.99 54.971c110.843 0 201.048 90.204 201.048 201.046S366.833 457.03 255.99 457.03z" class="st4"/>
	<path d="M255.99 73.033c-100.893 0-182.949 82.091-182.949 182.984 0 100.895 82.056 182.95 182.95 182.95 100.893 0 182.985-82.055 182.985-182.95 0-100.893-82.092-182.984-182.986-182.984zM256.01 384c-70.698 0-128.006-57.308-128.006-128 0-70.697 57.308-128.006 128.005-128.006 70.696 0 128.003 57.31 128.003 128.006 0 70.692-57.307 128-128.003 128z" class="st4"/>
</svg>
