<?xml version="1.0" encoding="utf-8"?>
<!-- Generator: Adobe Illustrator 23.1.0, SVG Export Plug-In . SVG Version: 6.00 Build 0)  -->
<svg version="1.1" xmlns="http://www.w3.org/2000/svg" xmlns:xlink="http://www.w3.org/1999/xlink" x="0px" y="0px"
	 width="47.99922px" height="47.99922px" viewBox="0 0 47.99922 47.99922" style="enable-background:new 0 0 47.99922 47.99922;"
	 xml:space="preserve">
<style type="text/css">
	.st0{display:none;}
	.st1{display:inline;}
	.st2{fill:#0D122A;}
	.st3{fill:none;}
	.st4{fill:#FAFAFA;}
</style>
<g id="Black" class="st0">
	<g class="st1">
		<g>
			<g>
				<g>
					<g>
						<path class="st2" d="M24.00019,7.99964c-8.8371,0-16.00058,7.16354-16.00058,15.99994c0,8.8365,7.16348,16,16.00058,16
							c8.8359,0,15.99942-7.1635,15.99942-16C39.99961,15.16318,32.83609,7.99964,24.00019,7.99964z M23.99899,36.56388
							c-6.9276,0-12.5632-5.6356-12.5632-12.5632s5.6356-12.56534,12.5632-12.56534c6.9277,0,12.5655,5.63774,12.5655,12.56534
							S30.92669,36.56388,23.99899,36.56388z"/>
						<path class="st2" d="M23.99899,12.56418c-6.3058,0-11.4343,5.1307-11.4343,11.4365c0,6.3059,5.1285,11.4343,11.4343,11.4343
							c6.3059,0,11.43662-5.1284,11.43662-11.4343C35.43561,17.69488,30.30489,12.56418,23.99899,12.56418z M24.00019,31.99958
							c-4.41858,0-8.0003-3.5817-8.0003-8c0-4.4185,3.58172-8.0003,8.0003-8.0003c4.4185,0,8.0002,3.5818,8.0002,8.0003
							C32.00039,28.41788,28.41869,31.99958,24.00019,31.99958z"/>
					</g>
				</g>
			</g>
		</g>
	</g>
</g>
<g id="White">
	<g>
		<g>
			<g>
				<g>
					<g>
						<path class="st4" d="M24.00019,7.99964c-8.8371,0-16.00058,7.16354-16.00058,15.99994c0,8.8365,7.16348,16,16.00058,16
							c8.8359,0,15.99942-7.1635,15.99942-16C39.99961,15.16318,32.83609,7.99964,24.00019,7.99964z M23.99899,36.56388
							c-6.9276,0-12.5632-5.6356-12.5632-12.5632s5.6356-12.56534,12.5632-12.56534c6.9277,0,12.5655,5.63774,12.5655,12.56534
							S30.92669,36.56388,23.99899,36.56388z"/>
						<path class="st4" d="M23.99899,12.56418c-6.3058,0-11.4343,5.1307-11.4343,11.4365c0,6.3059,5.1285,11.4343,11.4343,11.4343
							c6.3059,0,11.43662-5.1284,11.43662-11.4343C35.43561,17.69488,30.30489,12.56418,23.99899,12.56418z M24.00019,31.99958
							c-4.41858,0-8.0003-3.5817-8.0003-8c0-4.4185,3.58172-8.0003,8.0003-8.0003c4.4185,0,8.0002,3.5818,8.0002,8.0003
							C32.00039,28.41788,28.41869,31.99958,24.00019,31.99958z"/>
					</g>
				</g>
			</g>
		</g>
	</g>
</g>
</svg>
